<svg id="Capa_1" enable-background="new 0 0 512 512" height="512" viewBox="0 0 512 512" width="512" xmlns="http://www.w3.org/2000/svg"><g><circle cx="256" cy="256" fill="#fbe77b" r="171.728"/><path d="m332.932 102.44c11.618 23.144 18.167 49.271 18.167 76.932 0 30.868-8.149 59.829-22.408 84.859-7.115 12.49-20.532 20.054-34.906 20.054h-207.181c13.482 81.343 84.12 143.382 169.271 143.443 94.562.067 171.853-77.166 171.853-171.728-.001-67.182-38.584-125.343-94.796-153.56z" fill="#fcdd2e"/><path d="m512 342.874h-512v-30.407c0-5.523 4.477-10 10-10h492c5.523 0 10 4.477 10 10z" fill="#fdb77e"/><path d="m0 342.874h512v40.407h-512z" fill="#fba65c"/><path d="m0 383.28h512v40.407h-512z" fill="#fb9538"/><path d="m0 423.687h512v40.407h-512z" fill="#fc840d"/><path d="m502 512h-492c-5.523 0-10-4.477-10-10v-37.906h512v37.906c0 5.523-4.477 10-10 10z" fill="#fb7601"/><g><path d="m195.39 431.187h-101.016c-4.142 0-7.5-3.357-7.5-7.5s3.358-7.5 7.5-7.5h101.016c4.142 0 7.5 3.357 7.5 7.5s-3.358 7.5-7.5 7.5z" fill="#fb7601"/></g><g><path d="m387.321 471.594h-101.016c-4.142 0-7.5-3.357-7.5-7.5s3.358-7.5 7.5-7.5h101.017c4.142 0 7.5 3.357 7.5 7.5s-3.359 7.5-7.501 7.5z" fill="#fb7601"/></g><g><path d="m367.118 350.374h-303.049c-4.142 0-7.5-3.357-7.5-7.5s3.358-7.5 7.5-7.5h303.048c4.142 0 7.5 3.357 7.5 7.5s-3.357 7.5-7.499 7.5z" fill="#fb7601"/></g><g><path d="m468.134 390.78h-202.032c-4.142 0-7.5-3.357-7.5-7.5s3.358-7.5 7.5-7.5h202.033c4.142 0 7.5 3.357 7.5 7.5s-3.359 7.5-7.501 7.5z" fill="#fb7601"/></g><g><path d="m256 55.406c-4.142 0-7.5-3.357-7.5-7.5v-40.406c0-4.143 3.358-7.5 7.5-7.5s7.5 3.357 7.5 7.5v40.406c0 4.143-3.358 7.5-7.5 7.5z" fill="#fbe77b"/></g><g><path d="m202.137 62.499c-3.312 0-6.342-2.21-7.24-5.561l-5.229-19.515c-1.072-4.001 1.302-8.113 5.303-9.186 4.002-1.076 8.114 1.302 9.186 5.303l5.229 19.515c1.072 4.001-1.302 8.113-5.304 9.186-.649.175-1.303.258-1.945.258z" fill="#fcdd2e"/></g><g><path d="m108.855 116.355c-1.919 0-3.839-.732-5.303-2.197l-14.285-14.286c-2.929-2.929-2.929-7.677 0-10.606 2.929-2.928 7.678-2.929 10.606.001l14.286 14.286c2.929 2.929 2.929 7.677 0 10.606-1.465 1.464-3.385 2.196-5.304 2.196z" fill="#fcdd2e"/></g><g><path d="m55.002 209.644c-.643 0-1.296-.083-1.946-.258l-19.515-5.229c-4.001-1.072-6.375-5.185-5.303-9.186s5.187-6.377 9.186-5.303l19.515 5.229c4.001 1.072 6.375 5.185 5.303 9.186-.898 3.351-3.929 5.561-7.24 5.561z" fill="#fcdd2e"/></g><g><path d="m151.96 83.287c-2.592 0-5.113-1.345-6.502-3.751l-20.203-34.993c-2.071-3.587-.842-8.174 2.745-10.245 3.587-2.069 8.174-.843 10.245 2.745l20.203 34.993c2.071 3.587.842 8.174-2.745 10.245-1.181.682-2.471 1.006-3.743 1.006z" fill="#fbe77b"/></g><g><path d="m75.779 159.454c-1.272 0-2.562-.324-3.743-1.006l-34.993-20.203c-3.587-2.071-4.816-6.658-2.745-10.245 2.071-3.588 6.658-4.815 10.245-2.745l34.993 20.203c3.587 2.071 4.816 6.658 2.745 10.245-1.389 2.406-3.91 3.751-6.502 3.751z" fill="#fbe77b"/></g><g><path d="m47.907 263.5h-40.407c-4.142 0-7.5-3.357-7.5-7.5s3.358-7.5 7.5-7.5h40.407c4.142 0 7.5 3.357 7.5 7.5s-3.358 7.5-7.5 7.5z" fill="#fbe77b"/></g><g><path d="m309.863 62.499c-.643 0-1.296-.083-1.946-.258-4.001-1.072-6.375-5.185-5.304-9.186l5.229-19.515c1.072-4.001 5.188-6.378 9.186-5.303 4.001 1.072 6.375 5.185 5.303 9.186l-5.229 19.515c-.897 3.351-3.928 5.561-7.239 5.561z" fill="#fcdd2e"/></g><g><path d="m403.145 116.355c-1.919 0-3.839-.732-5.303-2.196-2.929-2.93-2.929-7.678 0-10.606l14.286-14.286c2.929-2.93 7.678-2.929 10.606-.001 2.929 2.93 2.929 7.678 0 10.606l-14.286 14.286c-1.465 1.465-3.384 2.197-5.303 2.197z" fill="#fcdd2e"/></g><g><path d="m456.998 209.644c-3.312 0-6.341-2.21-7.239-5.561-1.072-4.001 1.302-8.113 5.303-9.186l19.515-5.229c4-1.076 8.113 1.302 9.186 5.303s-1.302 8.113-5.303 9.186l-19.515 5.229c-.651.175-1.304.258-1.947.258z" fill="#fcdd2e"/></g><g><path d="m360.04 83.287c-1.272 0-2.562-.324-3.743-1.006-3.587-2.071-4.816-6.658-2.745-10.245l20.203-34.993c2.071-3.589 6.658-4.815 10.245-2.745 3.587 2.071 4.816 6.658 2.745 10.245l-20.203 34.993c-1.389 2.406-3.91 3.751-6.502 3.751z" fill="#fbe77b"/></g><g><path d="m436.221 159.454c-2.592 0-5.113-1.345-6.502-3.751-2.071-3.587-.842-8.174 2.745-10.245l34.993-20.203c3.586-2.069 8.174-.843 10.245 2.745 2.071 3.587.842 8.174-2.745 10.245l-34.993 20.203c-1.181.682-2.47 1.006-3.743 1.006z" fill="#fbe77b"/></g><g><path d="m504.5 263.5h-40.407c-4.142 0-7.5-3.357-7.5-7.5s3.358-7.5 7.5-7.5h40.407c4.142 0 7.5 3.357 7.5 7.5s-3.358 7.5-7.5 7.5z" fill="#fbe77b"/></g></g></svg>