<svg id="Capa_1" enable-background="new 0 0 512 512" height="512" viewBox="0 0 512 512" width="512" xmlns="http://www.w3.org/2000/svg"><g><path d="m426.838 352.713c-3.264-2.854-7.608-4.16-11.9-3.571l-147.109 20.055c-3.819.521-7.292 2.492-9.697 5.505-20.032 25.097-25.243 51.769-13.939 71.348v.001c9.311 16.125 27.76 24.95 52.063 24.95.558 0 1.118-.005 1.682-.014 21.949-.362 46.698-7.872 69.688-21.145 39.031-22.535 64.285-56.217 64.339-85.81.007-4.336-1.862-8.464-5.127-11.319z" fill="#e20000"/><path d="m217.217 359.299-74.325-31.743c-4.634-1.979-9.951-1.5-14.157 1.277-4.205 2.777-6.735 7.479-6.735 12.517v53.38c0 17.227 10.504 32.043 26.76 37.745 4.457 1.563 9.004 2.322 13.479 2.322 11.847 0 23.186-5.315 30.996-15.079l29.804-37.254c2.929-3.661 3.978-8.48 2.835-13.026-1.144-4.547-4.347-8.298-8.657-10.139z" fill="#e20000"/><path d="m267.828 142.804 147.109 20.055c.677.092 1.354.137 2.027.137 3.608 0 7.123-1.303 9.873-3.708 3.265-2.854 5.134-6.982 5.126-11.318-.053-29.593-25.307-63.276-64.339-85.811-22.99-13.273-47.739-20.783-69.688-21.145-25.168-.416-44.221 8.44-53.745 24.937-11.304 19.579-6.093 46.251 13.939 71.348 2.406 3.013 5.879 4.984 9.698 5.505z" fill="#ff6326"/><path d="m193.234 92.282c-10.761-13.453-28.218-18.46-44.475-12.758-16.255 5.702-26.759 20.518-26.759 37.745v53.38c0 5.039 2.53 9.741 6.734 12.518 2.49 1.644 5.37 2.482 8.267 2.482 1.996 0 4-.398 5.891-1.206l74.326-31.743c4.311-1.841 7.514-5.592 8.656-10.139 1.143-4.546.094-9.366-2.835-13.026z" fill="#ff6326"/><g><g><path d="m306.092 401c-78.313 0-156.336-25.447-202.339-65.424-9.068 3.539-18.362 7.081-27.423 10.534-11.91 4.54-24.226 9.233-35.79 13.83-7.378 2.932-15.766-.394-19.128-7.586-14.008-29.962-21.412-63.28-21.412-96.354s7.404-66.392 21.412-96.353c3.339-7.143 11.637-10.481 18.995-7.639l63.296 24.46c45.996-40.004 124.045-65.468 202.389-65.468 58.836 0 109.88 14.12 147.613 40.833 37.592 26.614 58.295 63.608 58.295 104.167s-20.703 77.553-58.295 104.167c-37.733 26.713-88.777 40.833-147.613 40.833z" fill="#fff"/></g><g><path d="m0 256c0 33.074 7.404 66.393 21.412 96.353 3.362 7.193 11.75 10.519 19.128 7.586 11.564-4.596 23.88-9.29 35.79-13.83 9.061-3.453 18.354-6.996 27.423-10.534 46.003 39.978 124.025 65.425 202.339 65.425 58.836 0 109.88-14.12 147.613-40.833 37.592-26.614 58.295-63.608 58.295-104.167z" fill="#e2dff4"/></g></g><path d="m214.823 389.606c29.05 7.359 60.133 11.394 91.269 11.394 6.164 0 12.236-.164 18.222-.472-7.128-9.708-13.546-19.925-19.156-30.559-18.421-34.924-28.158-74.334-28.158-113.969s9.737-79.044 28.158-113.968c5.609-10.634 12.027-20.852 19.156-30.56-5.986-.308-12.059-.472-18.222-.472-31.136 0-62.219 4.035-91.269 11.393-18.255 41.972-27.823 87.688-27.823 133.607 0 45.918 9.568 91.633 27.823 133.606z" fill="#ff9d21"/><g><path d="m453.705 151.833c-8.823-6.247-18.382-11.797-28.591-16.646-35.386 28.399-58.114 71.909-58.114 120.813s22.728 92.414 58.114 120.812c10.209-4.849 19.768-10.399 28.591-16.646 37.592-26.613 58.295-63.607 58.295-104.166s-20.703-77.553-58.295-104.167z" fill="#ff9d21"/></g><path d="m104.724 175.609c-.336.288-.688.569-1.021.859l-63.296-24.46c-7.358-2.842-15.656.496-18.995 7.639-14.008 29.961-21.412 63.279-21.412 96.353s7.404 66.393 21.412 96.353c3.362 7.193 11.75 10.519 19.128 7.586 11.564-4.596 23.88-9.29 35.79-13.83 9.061-3.453 18.354-6.996 27.423-10.534.317.275.651.543.971.817-5.105-26.447-7.724-53.392-7.724-80.392 0-26.999 2.619-53.943 7.724-80.391z" fill="#ff9d21"/><circle cx="427" cy="231" fill="#00429b" r="15"/><g fill="#ff6326"><path d="m187 256c0 45.918 9.568 91.633 27.823 133.606 29.05 7.359 60.133 11.394 91.269 11.394 6.164 0 12.236-.164 18.222-.472-7.128-9.708-13.546-19.925-19.156-30.559-18.421-34.924-28.158-74.334-28.158-113.969z"/><path d="m367 256c0 48.904 22.728 92.414 58.114 120.812 10.209-4.849 19.768-10.399 28.591-16.646 37.592-26.613 58.295-63.607 58.295-104.166z"/><path d="m21.412 352.353c3.362 7.193 11.75 10.519 19.128 7.586 11.564-4.596 23.88-9.29 35.79-13.83 9.061-3.453 18.354-6.996 27.423-10.534.317.275.651.543.971.817-5.105-26.447-7.724-53.392-7.724-80.392h-97c0 33.074 7.404 66.392 21.412 96.353z"/></g><g fill="#00429b"><path d="m202 256c0-47.597 10.766-94.961 31.212-137.772-12.6 2.51-24.901 5.652-36.77 9.354-16.057 40.737-24.442 84.489-24.442 128.418s8.385 87.68 24.441 128.417c11.869 3.701 24.17 6.844 36.771 9.354-20.446-42.812-31.212-90.174-31.212-137.771z"/><path d="m318.426 362.97c-17.288-32.775-26.426-69.765-26.426-106.97s9.138-74.194 26.426-106.97c6.729-12.756 14.708-24.866 23.729-36.16-11.571-1.229-23.529-1.861-35.832-1.869-5.237 7.752-10.072 15.769-14.431 24.032-19.556 37.074-29.892 78.904-29.892 120.967 0 42.064 10.336 83.893 29.891 120.966 4.359 8.264 9.195 16.28 14.431 24.031 12.303-.008 24.262-.64 35.832-1.869-9.02-11.293-17-23.402-23.728-36.158z"/><path d="m123.033 350.251c-7.284-30.821-11.033-62.497-11.033-94.251s3.748-63.43 11.032-94.251c-6.927 4.651-13.399 9.561-19.329 14.719l-13.421-5.186c-5.475 27.858-8.282 56.26-8.282 84.718 0 28.478 2.811 56.899 8.294 84.776 4.504-1.727 9.009-3.464 13.459-5.201 5.917 5.142 12.371 10.039 19.28 14.676z"/></g><path d="m439.747 142.884c-9.372-5.445-19.41-10.219-30.051-14.298-36.393 32.121-57.696 78.582-57.696 127.414 0 48.831 21.303 95.293 57.696 127.414 10.641-4.079 20.678-8.853 30.051-14.298-36.177-26.365-57.747-68.55-57.747-113.116 0-44.565 21.57-86.751 57.747-113.116z" fill="#00429b"/><g fill="#002659"><path d="m172 256c0 43.929 8.385 87.68 24.441 128.417 11.869 3.701 24.17 6.844 36.771 9.354-20.446-42.812-31.212-90.174-31.212-137.771z"/><path d="m262 256c0 42.064 10.336 83.893 29.891 120.966 4.359 8.264 9.195 16.28 14.431 24.031 12.303-.008 24.262-.64 35.832-1.869-9.02-11.294-17-23.403-23.729-36.159-17.287-32.774-26.425-69.764-26.425-106.969z"/><path d="m82 256c0 28.478 2.811 56.899 8.294 84.776 4.504-1.727 9.009-3.464 13.459-5.201 5.917 5.142 12.371 10.038 19.28 14.676-7.284-30.821-11.033-62.497-11.033-94.251z"/><path d="m382 256h-30c0 48.831 21.303 95.293 57.696 127.414 10.641-4.079 20.678-8.853 30.051-14.298-36.177-26.365-57.747-68.55-57.747-113.116z"/></g></g></svg>