<svg id="Layer_1" enable-background="new 0 0 511.998 511.998" height="512" viewBox="0 0 511.998 511.998" width="512" xmlns="http://www.w3.org/2000/svg"><g><path d="m292.341 285.002h-104.651v83.534l204.3 36.932v-20.816c.001-54.948-44.702-99.65-99.649-99.65z" fill="#54c466"/><path d="m391.991 384.651c0-54.947-44.703-99.649-99.65-99.649h-36.342v95.882l135.992 24.583z" fill="#009c68"/><path d="m477.583 45.401c-22.194-22.194-51.702-34.417-83.089-34.417h-248.008v24.479c0 36.131 29.395 65.525 65.526 65.525h182.48c4.675 0 9.07 1.82 12.375 5.126s5.126 7.701 5.126 12.377c0 9.65-7.852 17.501-17.502 17.501h-211.981c-100.636 0-182.51 81.874-182.51 182.511s81.874 182.511 182.51 182.511h73.49l30-20.001v-120.007l-30-20.001h-58.489c-26.194 0-47.504-21.311-47.504-47.504s21.31-47.504 47.504-47.504h196.979c64.793 0 117.507-52.713 117.508-117.506.001-31.387-12.222-60.895-34.415-83.09z" fill="#d7ff59"/><path d="m302.003 341.005h-46.003v160.009h165.992v-40.02c0-66.162-53.826-119.989-119.989-119.989z" fill="#95e02a"/><path d="m302.003 341.005h-46.003v160.009h165.992v-40.02c0-66.162-53.826-119.989-119.989-119.989z" fill="#54c466"/><path d="m195.996 436.61h30v64.403h-30z" fill="#95e02a"/><path d="m135.992 436.61v58.397c9.71 2.561 19.734 4.34 30 5.265v-63.662z" fill="#95e02a"/><g><path d="m316.004 406.608h30v30.002h-30z" fill="#504687"/></g><g><path d="m461.997 285.001h30v30.002h-30z" fill="#cff"/></g><g><path d="m431.995 345.005h30v30.002h-30z" fill="#cff"/></g><g><path d="m52.721 86.668h30v30.002h-30z" fill="#cff"/></g><g><path d="m316.004 406.608h30v30.002h-30z" fill="#573161"/></g><g><path d="m461.997 285.001h30v30.002h-30z" fill="#81faf8"/></g><g><path d="m431.995 345.005h30v30.002h-30z" fill="#81faf8"/></g><path d="m477.583 45.401c-22.194-22.194-51.702-34.417-83.089-34.417h-138.495v90.004h138.493c4.675 0 9.07 1.82 12.375 5.126s5.126 7.701 5.126 12.377c0 9.65-7.852 17.501-17.502 17.501h-138.492v110.005h138.491c64.793 0 117.507-52.713 117.508-117.506.001-31.387-12.222-60.895-34.415-83.09z" fill="#95e02a"/></g></svg>