<svg id="Layer_1" height="512" viewBox="0 0 512 512" width="512" xmlns="http://www.w3.org/2000/svg" data-name="Layer 1"><rect fill="#a5e2fb" height="480" rx="80" width="480" x="15.978" y="16"/><path d="m126.011 16h-30.033a79.98 79.98 0 0 0 -79.978 80v320a79.982 79.982 0 0 0 79.978 80h29.974a79.983 79.983 0 0 1 -79.952-80v-320a80.009 80.009 0 0 1 80.011-80z" fill="#73abbc"/><circle cx="293.28" cy="392.661" fill="#71bfff" r="13"/><path d="m257.96 496h-161.96a80 80 0 0 1 -80-80v-19c8.18-10.86 19.54-31.88 21.5-66.4 1.23-21.72 9.59-35.67 19.25-44.58a62.435 62.435 0 0 1 23.62-13.49c-14.98 53.361-59.67 201.251 177.59 223.47z" fill="#2b70af"/><circle cx="362.28" cy="405.661" fill="#71bfff" r="13"/><circle cx="310.67" cy="178.451" fill="#ffb91d" r="25.77"/><path d="m463.14 480.641a79.612 79.612 0 0 1 -47.14 15.359h-158.04c-237.26-22.219-192.57-170.109-177.59-223.469a51.493 51.493 0 0 1 8.97-2.07s20.74 2.08 32.14-14.51 15.56 11.4 45.63 0 59.1-10.37 72.58 13.48a23.162 23.162 0 0 0 10.61 9.96c15.46 7.14 35.97-3.37 30.87 3.52-8.25 11.14 2.11 32.05 12.18 31.36-75.46 41.41-46.18 93.24-38.63 104.38l2.85 4.5c15.55 25.55 63.94 24.98 94.47 21.77a176.7 176.7 0 0 0 39.66-8.9c57.58-20.09 89.62-15.87 103.84-11.41a79.931 79.931 0 0 1 -32.4 56.03z" fill="#4689d3"/><path d="m46 416v-116.346c-5 7.978-7.761 18.093-8.489 30.947-1.96 34.52-13.331 55.54-21.511 66.399v19a80 80 0 0 0 80 80h29.978a79.982 79.982 0 0 1 -79.978-80z" fill="#215c87"/><g fill="#c5f1ff"><path d="m310.668 255.394a5 5 0 0 1 -5-5v-25.772a5 5 0 1 1 10 0v25.772a5 5 0 0 1 -5 5z"/><path d="m374.027 291.9a5 5 0 0 1 -4.334-2.5l-39.73-68.722a5 5 0 1 1 8.658-5.006l39.731 68.728a5 5 0 0 1 -4.325 7.5z"/><path d="m370.8 217.812a4.968 4.968 0 0 1 -2.5-.674l-20.4-11.812a5 5 0 1 1 5.009-8.654l20.4 11.812a5 5 0 0 1 -2.51 9.328z"/><path d="m410.531 183.449h-56.911a5 5 0 0 1 0-10h56.911a5 5 0 0 1 0 10z"/><path d="m350.4 161.974a5 5 0 0 1 -2.5-9.335l78.387-45.1a5 5 0 1 1 4.986 8.668l-78.386 45.1a4.979 4.979 0 0 1 -2.487.667z"/><path d="m334.287 145.867a5 5 0 0 1 -4.348-7.461l13.959-24.7a5 5 0 0 1 8.706 4.92l-13.959 24.7a5 5 0 0 1 -4.358 2.541z"/><path d="m310.668 139.423a5 5 0 0 1 -5-5v-18.254a5 5 0 1 1 10 0v18.254a5 5 0 0 1 -5 5z"/><path d="m289.2 145.867a5 5 0 0 1 -4.271-2.393l-11.812-19.329a5 5 0 1 1 8.533-5.215l11.812 19.329a5 5 0 0 1 -4.262 7.608z"/><path d="m273.08 161.974a4.973 4.973 0 0 1 -2.49-.668l-106.306-61.206a5 5 0 0 1 4.99-8.666l106.306 61.206a5 5 0 0 1 -2.5 9.334z"/><path d="m266.643 183.449h-45.1a5 5 0 0 1 0-10h45.1a5 5 0 0 1 0 10z"/><path d="m240.876 225.328a5 5 0 0 1 -2.577-9.288l32.214-19.328a5 5 0 0 1 5.144 8.574l-32.214 19.328a4.966 4.966 0 0 1 -2.567.714z"/><path d="m280.6 238.214a5 5 0 0 1 -4.336-7.481l8.591-15.034a5 5 0 1 1 8.681 4.961l-8.591 15.034a5 5 0 0 1 -4.345 2.52z"/><path d="m282.746 79.291a5 5 0 0 1 -4.846-3.791l-9.665-38.656a5 5 0 0 1 9.7-2.426l9.665 38.659a5 5 0 0 1 -3.638 6.064 5.055 5.055 0 0 1 -1.216.15z"/><path d="m256.983 95.4a5 5 0 0 1 -4.332-2.5l-35.435-61.2a5 5 0 0 1 8.654-5.01l35.436 61.207a5 5 0 0 1 -4.323 7.506z"/><path d="m219.4 92.176a4.982 4.982 0 0 1 -3.536-1.465l-55.942-55.937a5 5 0 0 1 7.07-7.071l55.939 55.938a5 5 0 0 1 -3.535 8.535z"/><path d="m413.75 157.679a5 5 0 0 1 -1.36-9.812l64.427-18.254a5 5 0 1 1 2.727 9.621l-64.428 18.255a5.051 5.051 0 0 1 -1.366.19z"/><path d="m475.5 183.449h-35.976a5 5 0 0 1 0-10h35.976a5 5 0 0 1 0 10z"/><path d="m482.337 230.069a4.974 4.974 0 0 1 -1.09-.121l-31-6.887a5 5 0 0 1 2.17-9.762l31 6.888a5 5 0 0 1 -1.08 9.882z"/><path d="m473.518 276.97a4.978 4.978 0 0 1 -2.476-.66l-34-19.428a5 5 0 0 1 4.961-8.682l34 19.428a5 5 0 0 1 -2.485 9.342z"/><path d="m428.786 302.641a4.988 4.988 0 0 1 -3.494-1.423l-46.173-45.1a5 5 0 1 1 6.988-7.154l46.173 45.1a5 5 0 0 1 -3.494 8.577z"/><path d="m370.8 88.955a5 5 0 0 1 -4.51-7.155l11.81-24.7a5 5 0 1 1 9.021 4.314l-11.812 24.7a5 5 0 0 1 -4.509 2.841z"/></g><path d="m110.08 485.957a4.966 4.966 0 0 1 -1.445-.214c-28.056-8.461-50.121-27.311-63.811-54.514a123.848 123.848 0 0 1 -12.3-38.927 5 5 0 0 1 9.946-1.045 116.027 116.027 0 0 0 11.445 35.787c12.612 24.872 32 41.4 57.608 49.125a5 5 0 0 1 -1.441 9.788z" fill="#1a4c6b"/><path d="m209.1 397.3a5 5 0 0 1 -4.759-3.471c-8.1-25.2-13.038-61.573 9.453-91.7a85.951 85.951 0 0 1 34.641-27.382 5 5 0 1 1 3.718 9.283 76.6 76.6 0 0 0 -30.345 24.082c-16.01 21.445-18.684 49.255-7.948 82.658a5 5 0 0 1 -4.76 6.531z" fill="#3573aa"/><path d="m287.278 471.33a5 5 0 1 0 1.256 9.92c41.337-5.232 113.3-11.593 159.061-.228a5 5 0 0 0 6.024-3.424 4.985 4.985 0 0 0 -3.563-6.254c-28.03-6.959-77.236-10.844-162.778-.014z" fill="#3573aa"/><path d="m160.884 453.812a4.979 4.979 0 0 1 -3.124-1.1c-44.072-35.329-65.9-71.3-64.874-106.9 1.293-45 38.628-72.067 40.217-73.2a5 5 0 0 1 5.8 8.145c-.415.3-34.93 25.482-36.024 65.436-.884 32.275 19.684 65.488 61.135 98.716a5 5 0 0 1 -3.13 8.9z" fill="#3573aa"/><path d="m202.357 441.37a4.978 4.978 0 0 1 -2.662-.771c-34.252-21.6-52.225-46.8-53.423-74.9-.9-21.091 8.049-43.9 25.877-65.965a173.735 173.735 0 0 1 27.2-27.032 5 5 0 0 1 6.037 7.973c-.511.388-51.075 39.285-49.117 84.632 1.062 24.613 17.469 47.1 48.764 66.836a5 5 0 0 1 -2.672 9.23z" fill="#3573aa"/><path d="m468.775 354.838h-3a5 5 0 0 1 0-10h3a5 5 0 0 1 0 10z" fill="#5a919e"/><path d="m407.275 345.657h-3a5 5 0 0 1 0-10h3a5 5 0 0 1 0 10z" fill="#5a919e"/><path d="m124.275 164.657h-3a5 5 0 0 1 0-10h3a5 5 0 0 1 0 10z" fill="#5a919e"/><path d="m85.275 100.657h-3a5 5 0 0 1 0-10h3a5 5 0 0 1 0 10z" fill="#5a919e"/><path d="m452.275 59.657h-3a5 5 0 0 1 0-10h3a5 5 0 0 1 0 10z" fill="#5a919e"/><path d="m67.275 192.657h-3a5 5 0 0 1 0-10h3a5 5 0 0 1 0 10z" fill="#5a919e"/><path d="m42.275 143.657h-3a5 5 0 0 1 0-10h3a5 5 0 1 1 0 10z" fill="#5a919e"/><path d="m322.781 79.158a5.006 5.006 0 0 1 -4.924-5.9l8.243-44.969a5 5 0 0 1 9.836 1.8l-8.245 44.967a5 5 0 0 1 -4.91 4.102z" fill="#c5f1ff"/><path d="m354.79 349.271c-1.04 10.37 10.37 10.37 6.22 19.7s-17.63 21.77-28-6.22-9.33-23.85-23.85-22.81-15.81-25.67-15.81-25.67c-10.07.69-20.43-20.22-12.18-31.36 5.1-6.89-15.41 3.62-30.87-3.52a23.162 23.162 0 0 1 -10.61-9.96c-13.48-23.85-42.51-24.89-72.58-13.48s-34.22-16.59-45.63 0-32.14 14.51-32.14 14.51a51.493 51.493 0 0 0 -8.97 2.07 62.435 62.435 0 0 0 -23.62 13.49l-.01-.01c.09-.53 4.84-30.16 31.56-41.47 26.96-11.4 32.15-5.18 51.85-20.74s66.36-7.25 79.84-4.14 24.89 3.11 39.4 6.22 14.52 25.92 25.92 35.25 22.82 15.56 24.89 30.07 10.37 23.85 26.96 34.22 18.66 13.479 17.63 23.85z" fill="#71bfff"/></svg>