<svg id="Icons" height="512" viewBox="0 0 60 60" width="512" xmlns="http://www.w3.org/2000/svg"><path d="m11.58 35.02a18.741 18.741 0 0 0 -6.34 2.62 2.239 2.239 0 0 1 -3.34-1.17 20.386 20.386 0 0 1 -.9-6.47 20.386 20.386 0 0 1 .9-6.47 2.239 2.239 0 0 1 3.34-1.17 18.741 18.741 0 0 0 6.34 2.62z" fill="#e26a4f"/><path d="m59 30a22.079 22.079 0 0 1 -3.14 11.36l1.43 2.95a1.031 1.031 0 0 1 -1.02 1.48l-3.51-.32a24 24 0 0 1 -4.54 3.73l-.13 3.83a1.021 1.021 0 0 1 -1.58.83l-3.43-2.2a24.651 24.651 0 0 1 -5.11 1.16l-2.07 3.66a1.041 1.041 0 0 1 -1.8 0l-2.07-3.66a24.651 24.651 0 0 1 -5.11-1.16l-3.43 2.2a1.021 1.021 0 0 1 -1.58-.83l-.13-3.83a24 24 0 0 1 -4.54-3.73l-3.51.32a1.031 1.031 0 0 1 -1.02-1.48l1.43-2.95a22.079 22.079 0 0 1 -3.14-11.36l1-1h46z" fill="#d9e8f7"/><path d="m59 30c-7 0-14 5-28 5s-20-5-20-5a22.079 22.079 0 0 1 3.14-11.36l-1.43-2.95a1.031 1.031 0 0 1 1.02-1.48l3.51.32a24 24 0 0 1 4.54-3.73l.13-3.83a1.021 1.021 0 0 1 1.58-.83l3.43 2.2a24.651 24.651 0 0 1 5.11-1.16l2.07-3.66a1.041 1.041 0 0 1 1.8 0l2.07 3.66a24.651 24.651 0 0 1 5.11 1.16l3.43-2.2a1.021 1.021 0 0 1 1.58.83l.13 3.83a24 24 0 0 1 4.54 3.73l3.51-.32a1.031 1.031 0 0 1 1.02 1.48l-1.43 2.95a22.079 22.079 0 0 1 3.14 11.36z" fill="#fc7b58"/><circle cx="48.5" cy="22.5" fill="#fff" r="2.5"/><path d="m39 26a2.239 2.239 0 0 0 -.8-1.718c-1.361-1.151-4.28-3.282-7.2-3.282a2 2 0 0 0 -2 2v6a2 2 0 0 0 2 2c2.92 0 5.839-2.131 7.2-3.282a2.239 2.239 0 0 0 .8-1.718z" fill="#e26a4f"/><g fill="#262626"><path d="m2.937 38.812a3.245 3.245 0 0 0 2.852-.336 17.655 17.655 0 0 1 5.076-2.254 23.353 23.353 0 0 0 2.14 5.181l-1.2 2.475a2.027 2.027 0 0 0 2.007 2.905l3.042-.271a24.81 24.81 0 0 0 3.946 3.238l.108 3.313a2.027 2.027 0 0 0 3.126 1.64l3.021-1.944a25.81 25.81 0 0 0 4.352.988l1.826 3.221a2.028 2.028 0 0 0 3.532 0l1.826-3.222a25.81 25.81 0 0 0 4.352-.988l3.022 1.942a2.027 2.027 0 0 0 3.126-1.64l.109-3.31a24.81 24.81 0 0 0 3.944-3.238l3.042.271a2.028 2.028 0 0 0 2.007-2.906l-1.193-2.477a23.138 23.138 0 0 0 0-22.8l1.2-2.475a2.027 2.027 0 0 0 -2.007-2.9l-3.042.271a24.81 24.81 0 0 0 -3.951-3.246l-.108-3.313a2.027 2.027 0 0 0 -3.127-1.637l-3.021 1.941a25.81 25.81 0 0 0 -4.352-.988l-1.826-3.221a2.028 2.028 0 0 0 -3.532 0l-1.826 3.221a25.81 25.81 0 0 0 -4.352.988l-3.021-1.941a2.027 2.027 0 0 0 -3.126 1.641l-.109 3.309a24.81 24.81 0 0 0 -3.944 3.238l-3.042-.271a2.028 2.028 0 0 0 -2.007 2.906l1.427 2.951a1 1 0 0 0 1.8-.871l-1.4-2.994 3.516.313a.991.991 0 0 0 .815-.307 22.879 22.879 0 0 1 4.349-3.566 1 1 0 0 0 .464-.812l.171-3.858 3.423 2.2a1 1 0 0 0 .865.105 23.676 23.676 0 0 1 4.907-1.112 1 1 0 0 0 .753-.5l2.124-3.657 2.079 3.66a1 1 0 0 0 .753.5 23.676 23.676 0 0 1 4.907 1.112 1 1 0 0 0 .865-.105l3.468-2.182.125 3.835a1 1 0 0 0 .464.812 22.879 22.879 0 0 1 4.349 3.566 1 1 0 0 0 .815.307l3.546-.27-1.428 2.95a1 1 0 0 0 .041.946 21.289 21.289 0 0 1 2.962 9.887 39.064 39.064 0 0 0 -8.446 1.867 60.647 60.647 0 0 1 -18.521 3.1c-11.529 0-17.5-3.49-18.977-4.5a20.989 20.989 0 0 1 1.407-7.144 1 1 0 0 0 -1.866-.722c-.272.7-.505 1.416-.707 2.137a17.675 17.675 0 0 1 -5.077-2.252 3.238 3.238 0 0 0 -4.828 1.693 21.511 21.511 0 0 0 -.952 6.788 21.5 21.5 0 0 0 .951 6.784 3.206 3.206 0 0 0 1.986 2.028zm47.151-5.99a38.615 38.615 0 0 1 7.877-1.784 21.292 21.292 0 0 1 -2.96 9.813 1 1 0 0 0 -.041.946l1.4 2.994-3.516-.313a1.006 1.006 0 0 0 -.815.307 22.879 22.879 0 0 1 -4.349 3.566 1 1 0 0 0 -.464.812l-.171 3.858-3.423-2.2a.993.993 0 0 0 -.865-.1 23.676 23.676 0 0 1 -4.907 1.112 1 1 0 0 0 -.753.5l-2.124 3.657-2.077-3.665a1 1 0 0 0 -.753-.5 23.676 23.676 0 0 1 -4.907-1.112.992.992 0 0 0 -.865.1l-3.468 2.187-.125-3.835a1 1 0 0 0 -.464-.812 22.879 22.879 0 0 1 -4.349-3.566 1 1 0 0 0 -.815-.307l-3.546.27 1.428-2.95a1 1 0 0 0 -.036-.949 21.326 21.326 0 0 1 -2.9-8.951c2.722 1.545 8.756 4.1 18.9 4.1a62.39 62.39 0 0 0 19.088-3.178zm-47.238-8.977a1.217 1.217 0 0 1 .754-.771 1.239 1.239 0 0 1 1.087.122 19.65 19.65 0 0 0 5.709 2.525 22.964 22.964 0 0 0 .008 8.556 19.648 19.648 0 0 0 -5.708 2.523 1.242 1.242 0 0 1 -1.1.128 1.218 1.218 0 0 1 -.755-.775 19.514 19.514 0 0 1 -.845-6.153 19.527 19.527 0 0 1 .85-6.155z"/><path d="m52 22.5a3.5 3.5 0 1 0 -3.5 3.5 3.5 3.5 0 0 0 3.5-3.5zm-5 0a1.5 1.5 0 1 1 1.5 1.5 1.5 1.5 0 0 1 -1.5-1.5z"/><path d="m38.848 28.482a3.25 3.25 0 0 0 0-4.964c-1.557-1.318-4.648-3.518-7.848-3.518a3 3 0 0 0 -3 3v6a3 3 0 0 0 3 3c3.2 0 6.291-2.2 7.848-3.518zm-8.848.518v-6a1 1 0 0 1 1-1c2.661 0 5.473 2.131 6.559 3.047a1.25 1.25 0 0 1 0 1.906c-1.086.916-3.898 3.047-6.559 3.047a1 1 0 0 1 -1-1z"/><path d="m49 38h4a1 1 0 0 0 0-2h-4a1 1 0 0 0 0 2z"/></g></svg>