<svg id="Layer_2" height="512" viewBox="0 0 512 512" width="512" xmlns="http://www.w3.org/2000/svg" xmlns:xlink="http://www.w3.org/1999/xlink" data-name="Layer 2"><linearGradient id="linear-gradient" gradientUnits="userSpaceOnUse" x1="43.93" x2="468.07" y1="43.93" y2="468.07"><stop offset="0" stop-color="#64b5f6"/><stop offset="1" stop-color="#1976d2"/></linearGradient><linearGradient id="linear-gradient-2" gradientUnits="userSpaceOnUse" x1="174.48" x2="475.32" y1="159.96" y2="460.81"><stop offset="0" stop-opacity=".35"/><stop offset="1" stop-opacity="0"/></linearGradient><g id="Icon"><g id="Question_Mark" data-name="Question Mark"><rect id="Background" fill="url(#linear-gradient)" height="512" rx="150" width="512"/><path d="m512 304.98v57.02c0 82.84-67.16 150-150 150h-28.01l-110.08-110.09 40.54-47.84-39.42-39.42 12.34-14.26-68.52-68.52 35.72-102h132.33z" fill="url(#linear-gradient-2)"/><path d="m362.85 197.76c0 11.35-1.64 21.12-4.92 29.33s-7.45 15.48-12.51 21.84-10.63 12.1-16.71 17.23-11.86 10.22-17.33 15.28-10.29 10.43-14.46 16.1-6.94 12.2-8.31 19.58c-6.84-1.5-13.5-2.56-19.99-3.18-6.5-.62-13.02-.92-19.59-.92-3.97 0-7.97.1-12 .31-4.04.21-8.04.65-12 1.33 0-9.43 1.03-17.43 3.08-23.99s4.65-12.37 7.79-17.43 6.53-9.77 10.15-14.15c3.62-4.37 7-9.09 10.15-14.15 3.14-5.06 5.74-10.83 7.79-17.33 2.05-6.49 3.08-14.46 3.08-23.89 0-6.42-.69-12.03-2.05-16.82-1.37-4.78-3.18-8.85-5.43-12.2-2.26-3.35-4.79-6.05-7.59-8.1s-5.57-3.66-8.3-4.82c-2.74-1.16-5.33-1.95-7.79-2.36s-4.51-.62-6.15-.62c-5.2 0-9.16 1.33-11.89 4-2.74 2.67-4.1 5.37-4.1 8.1 0 1.51.21 2.97.62 4.41s1.13 2.7 2.15 3.79c1.02 1.1 2.36 1.98 4 2.67s3.76 1.03 6.36 1.03c1.91-.13 3.69-.62 5.33-1.44 1.5-.68 3.01-1.81 4.51-3.38s2.67-3.79 3.49-6.67c3.01 4.24 5.3 9.06 6.87 14.46s2.36 10.97 2.36 16.71-.82 11.28-2.46 16.61-4.24 10.12-7.79 14.36c-3.56 4.24-8.1 7.62-13.64 10.15s-12.14 3.79-19.79 3.79c-9.43 0-17.71-2.08-24.81-6.25-7.11-4.17-13.02-9.43-17.74-15.79s-8.24-13.29-10.56-20.82c-2.33-7.52-3.49-14.63-3.49-21.33 0-6.15.75-12.54 2.26-19.17 1.5-6.63 3.86-13.12 7.07-19.48s7.38-12.37 12.51-18.05c5.12-5.67 11.24-10.66 18.35-14.97s15.35-7.72 24.71-10.25 19.92-3.79 31.68-3.79c9.57 0 19.14.82 28.71 2.46s18.69 4.17 27.38 7.59c8.68 3.42 16.74 7.79 24.2 13.12 7.45 5.33 13.91 11.72 19.38 19.17s9.74 16 12.82 25.63c3.08 9.64 4.62 20.41 4.62 32.3zm-151.55 173.5c0-5.88 1.13-11.45 3.38-16.71 2.26-5.26 5.33-9.88 9.23-13.84 3.89-3.96 8.47-7.08 13.74-9.33 5.26-2.26 10.9-3.38 16.92-3.38s11.65 1.13 16.92 3.38c5.26 2.26 9.84 5.37 13.74 9.33 3.9 3.97 6.97 8.58 9.23 13.84 2.25 5.26 3.38 10.84 3.38 16.71s-1.13 11.66-3.38 16.92c-2.26 5.26-5.33 9.84-9.23 13.74-3.89 3.9-8.48 6.97-13.74 9.23-5.27 2.26-10.91 3.38-16.92 3.38s-11.66-1.13-16.92-3.38c-5.26-2.26-9.84-5.33-13.74-9.23s-6.97-8.48-9.23-13.74c-2.25-5.26-3.38-10.9-3.38-16.92z" fill="#fff"/></g></g></svg>