<?xml version="1.0" encoding="iso-8859-1"?>
<!-- Generator: Adobe Illustrator 19.0.0, SVG Export Plug-In . SVG Version: 6.00 Build 0)  -->
<svg version="1.1" id="Capa_1" xmlns="http://www.w3.org/2000/svg" xmlns:xlink="http://www.w3.org/1999/xlink" x="0px" y="0px"
	 viewBox="0 0 512 512" style="enable-background:new 0 0 512 512;" xml:space="preserve">
<path style="fill:#7ED3E9;" d="M245.609,455.182l-123.847,44.04c-16.649,5.921-34.052-6.723-33.566-24.387L91.81,343.44
	c0.196-7.131-2.072-14.112-6.422-19.765L5.232,219.499c-10.776-14.005-4.128-34.463,12.821-39.459l126.08-37.166
	c6.843-2.017,12.781-6.331,16.813-12.216l74.308-108.425c9.99-14.576,31.501-14.576,41.49,0l74.308,108.425
	c4.033,5.884,9.971,10.199,16.813,12.216l126.08,37.166c16.95,4.996,23.597,25.455,12.821,39.459l-80.155,104.176
	c-4.35,5.654-6.618,12.634-6.422,19.765l3.614,131.395c0.486,17.664-16.917,30.308-33.566,24.387l-123.847-44.04
	C259.67,452.792,252.33,452.792,245.609,455.182z"/>
<path style="opacity:0.1;enable-background:new    ;" d="M493.947,180.039l-3.272-0.964c-0.78,3.371-2.282,6.662-4.587,9.657
	l-80.155,104.176c-4.35,5.654-6.618,12.634-6.422,19.765l3.614,131.395c0.486,17.664-16.917,30.308-33.566,24.387l-123.847-44.04
	c-6.721-2.39-14.061-2.39-20.783,0l-123.847,44.04c-4.305,1.531-8.658,1.812-12.742,1.094l-0.145,5.285
	c-0.486,17.664,16.917,30.308,33.566,24.387l123.847-44.04c6.721-2.39,14.061-2.39,20.783,0l123.847,44.04
	c16.649,5.921,34.052-6.723,33.566-24.387l-3.614-131.395c-0.196-7.131,2.072-14.111,6.422-19.766l80.156-104.176
	C517.544,205.494,510.897,185.036,493.947,180.039z"/>
<g>
	<path style="fill:#3F4C58;" d="M173.075,242.661c-4.142,0-7.5-3.358-7.5-7.5v-9.927c0-4.142,3.358-7.5,7.5-7.5s7.5,3.358,7.5,7.5
		v9.927C180.575,239.303,177.217,242.661,173.075,242.661z"/>
	<path style="fill:#3F4C58;" d="M338.925,242.661c-4.143,0-7.5-3.358-7.5-7.5v-9.927c0-4.142,3.357-7.5,7.5-7.5s7.5,3.358,7.5,7.5
		v9.927C346.425,239.303,343.067,242.661,338.925,242.661z"/>
	<path style="fill:#3F4C58;" d="M272.408,249.89c0,9.325-7.779,16.833-17.201,16.389c-8.825-0.416-15.614-8.017-15.614-16.852
		v-12.193c0-3.868,3.135-7.003,7.003-7.003h18.808c3.868,0,7.003,3.135,7.003,7.003v12.656H272.408z"/>
</g>
<path style="fill:#B692DF;" d="M88.505,100.016c-1.92,0-3.839-0.732-5.303-2.197L40.897,55.515c-2.929-2.929-2.929-7.678,0-10.606
	c2.929-2.929,7.678-2.929,10.606,0l42.305,42.304c2.929,2.929,2.929,7.678,0,10.606C92.344,99.284,90.424,100.016,88.505,100.016z"
	/>
<path style="fill:#6A95E6;" d="M137.4,72.337c-2.533,0-5.005-1.283-6.417-3.606l-15.869-26.114
	c-2.151-3.54-1.025-8.153,2.514-10.304c3.539-2.152,8.153-1.025,10.304,2.514l15.869,26.114c2.151,3.54,1.025,8.153-2.514,10.304
	C140.071,71.985,138.727,72.337,137.4,72.337z"/>
<path style="fill:#B692DF;" d="M421.909,100.016c-1.92,0-3.839-0.732-5.304-2.197c-2.929-2.929-2.929-7.678,0-10.606l42.305-42.304
	c2.93-2.929,7.678-2.929,10.607,0s2.929,7.678,0,10.606l-42.305,42.304C425.748,99.284,423.828,100.016,421.909,100.016z"/>
<path style="fill:#F6CE6E;" d="M373.015,72.337c-1.327,0-2.671-0.352-3.888-1.092c-3.54-2.151-4.666-6.764-2.515-10.304
	l15.869-26.114c2.15-3.54,6.765-4.665,10.304-2.514c3.54,2.151,4.666,6.764,2.515,10.304l-15.869,26.114
	C378.02,71.054,375.547,72.337,373.015,72.337z"/>
<path style="fill:#6A95E6;" d="M11.759,401.617c-2.554,0-5.043-1.304-6.447-3.656c-2.123-3.556-0.962-8.161,2.594-10.285
	l40.738-24.327c3.557-2.125,8.161-0.962,10.285,2.594s0.962,8.161-2.594,10.285l-40.738,24.327
	C14.393,401.275,13.067,401.617,11.759,401.617z"/>
<path style="fill:#F6CE6E;" d="M32.122,476.434c-1.938,0-3.875-0.746-5.342-2.235c-2.908-2.95-2.873-7.698,0.077-10.606
	l24.816-24.46c2.95-2.909,7.698-2.874,10.606,0.077c2.908,2.95,2.874,7.698-0.077,10.606l-24.816,24.46
	C35.925,475.715,34.023,476.434,32.122,476.434z"/>
<path style="fill:#B692DF;" d="M498.655,401.617c-1.309,0-2.634-0.342-3.838-1.061l-40.738-24.327
	c-3.557-2.124-4.718-6.729-2.595-10.285c2.124-3.556,6.731-4.715,10.284-2.594l40.738,24.327c3.557,2.124,4.718,6.729,2.595,10.285
	C503.697,400.313,501.208,401.617,498.655,401.617z"/>
<path style="fill:#6A95E6;" d="M478.293,476.434c-1.901,0-3.804-0.718-5.265-2.159l-24.815-24.46
	c-2.95-2.908-2.984-7.656-0.077-10.606c2.909-2.949,7.658-2.984,10.606-0.076l24.815,24.46c2.95,2.908,2.984,7.656,0.077,10.606
	C482.167,475.688,480.231,476.434,478.293,476.434z"/>
<g style="opacity:0.6;">
	<path style="fill:#FFFFFF;" d="M149.616,432.556c-1.452,0-2.919-0.421-4.21-1.298c-3.425-2.329-4.314-6.994-1.985-10.419
		l36.087-53.07c2.33-3.425,6.993-4.314,10.419-1.985c3.425,2.329,4.314,6.994,1.985,10.419l-36.087,53.07
		C154.374,431.407,152.016,432.556,149.616,432.556z"/>
	<path style="fill:#FFFFFF;" d="M94.49,227.778c-0.607,0-1.224-0.074-1.839-0.229l-57.869-14.591
		c-4.017-1.013-6.452-5.09-5.439-9.106c1.012-4.017,5.091-6.453,9.106-5.439l57.869,14.591c4.017,1.013,6.452,5.09,5.439,9.106
		C100.899,225.511,97.844,227.778,94.49,227.778z"/>
	<path style="fill:#FFFFFF;" d="M362.384,432.556c-2.399,0-4.758-1.149-6.209-3.283l-36.087-53.07
		c-2.329-3.425-1.44-8.09,1.985-10.419s8.09-1.441,10.419,1.985l36.087,53.07c2.329,3.425,1.44,8.09-1.985,10.419
		C365.303,432.136,363.836,432.556,362.384,432.556z"/>
	<path style="fill:#FFFFFF;" d="M417.511,227.778c-3.354,0-6.409-2.267-7.267-5.668c-1.013-4.016,1.422-8.093,5.438-9.106
		l57.869-14.591c4.012-1.015,8.094,1.422,9.106,5.439c1.013,4.016-1.422,8.093-5.439,9.106l-57.869,14.591
		C418.735,227.704,418.118,227.778,417.511,227.778z"/>
	<path style="fill:#FFFFFF;" d="M256,135.548c-4.142,0-7.5-3.358-7.5-7.5V56.413c0-4.142,3.358-7.5,7.5-7.5
		c4.143,0,7.5,3.358,7.5,7.5v71.636C263.5,132.19,260.143,135.548,256,135.548z"/>
</g>
<g>
</g>
<g>
</g>
<g>
</g>
<g>
</g>
<g>
</g>
<g>
</g>
<g>
</g>
<g>
</g>
<g>
</g>
<g>
</g>
<g>
</g>
<g>
</g>
<g>
</g>
<g>
</g>
<g>
</g>
</svg>
