<?xml version="1.0" encoding="UTF-8" standalone="no"?>
<!-- Created with Inkscape (http://www.inkscape.org/) -->

<svg
   version="1.1"
   id="svg6180"
   width="682.66669"
   height="682.66669"
   viewBox="0 0 682.66669 682.66669"
   xmlns="http://www.w3.org/2000/svg"
   xmlns:svg="http://www.w3.org/2000/svg">
  <defs
     id="defs6184">
    <clipPath
       clipPathUnits="userSpaceOnUse"
       id="clipPath6194">
      <path
         d="M 0,512 H 512 V 0 H 0 Z"
         id="path6192" />
    </clipPath>
    <clipPath
       clipPathUnits="userSpaceOnUse"
       id="clipPath6366">
      <path
         d="M 0,512 H 512 V 0 H 0 Z"
         id="path6364" />
    </clipPath>
  </defs>
  <g
     id="g6186"
     transform="matrix(1.3333333,0,0,-1.3333333,0,682.66667)">
    <g
       id="g6188">
      <g
         id="g6190"
         clip-path="url(#clipPath6194)">
        <g
           id="g6196"
           transform="translate(256,512)">
          <path
             d="m 0,0 c -141.385,0 -256,-114.615 -256,-256 0,-9.473 0.531,-18.821 1.534,-28.028 l 24.799,-13.844 -17.109,-26.408 c 23.879,-86.494 92.002,-154.617 178.496,-178.496 l 28.397,12.443 11.855,-20.133 C -18.821,-511.469 -9.473,-512 0,-512 c 141.385,0 256,114.615 256,256 C 256,-114.615 141.385,0 0,0"
             style="fill:#514bbf;fill-opacity:1;fill-rule:nonzero;stroke:none"
             id="path6198" />
        </g>
        <g
           id="g6200"
           transform="translate(405.6304,325.3198)">
          <path
             d="m 0,0 c 0,0 34.734,-6.13 72.022,-57.72 34.334,-47.503 18.587,-137.292 -12.108,-176.812 -4.277,-5.507 -12.587,-5.529 -16.964,-0.102 -9.393,11.643 -22.652,35.088 -19.964,72.712 4.086,57.209 -49.037,67.425 -49.037,67.425 z"
             style="fill:#85d249;fill-opacity:1;fill-rule:nonzero;stroke:none"
             id="path6202" />
        </g>
        <g
           id="g6204"
           transform="translate(448.3177,292.7271)">
          <path
             d="M 0,0 C 0.048,2.606 0.033,5.207 -0.038,7.801 -24.357,29.34 -42.687,32.593 -42.687,32.593 l -26.051,-94.497 c 0,0 29.098,-5.604 42.565,-31.71 C -6.272,-56.689 -0.448,-24.262 0,0"
             style="fill:#60b550;fill-opacity:1;fill-rule:nonzero;stroke:none"
             id="path6206" />
        </g>
        <g
           id="g6208"
           transform="translate(475.7148,196.7929)">
          <path
             d="m 0,0 -11.395,-2.257 c -3.652,-0.723 -7.135,1.902 -7.405,5.615 -0.592,8.135 -1.782,16.095 -3.634,23.697 -0.832,3.42 1.393,6.834 4.846,7.518 l 11.896,2.355 C -2.415,37.576 0.782,35.521 1.573,32.275 3.579,24.034 4.685,15.278 5.016,6.315 5.129,3.268 2.991,0.592 0,0"
             style="fill:#60b550;fill-opacity:1;fill-rule:nonzero;stroke:none"
             id="path6210" />
        </g>
        <g
           id="g6212"
           transform="translate(460.6745,248.442)">
          <path
             d="m 0,0 -10.416,-2.06 c -2.687,-0.532 -5.379,0.772 -6.69,3.177 -1.695,3.109 -3.561,6.087 -5.607,8.916 -5.548,7.677 -11.049,14.358 -16.381,20.15 l -5.119,24.84 C -36.865,50.97 -27.142,44.297 -16.323,33.478 -9.389,26.544 -2.624,18.522 3.805,9.642 3.823,9.617 3.841,9.592 3.859,9.567 6.462,5.964 4.361,0.863 0,0"
             style="fill:#60b550;fill-opacity:1;fill-rule:nonzero;stroke:none"
             id="path6214" />
        </g>
        <g
           id="g6216"
           transform="translate(442.652,251.1813)">
          <path
             d="M 0,0 C 2.467,9.828 3.99,19.035 4.832,27.51 3.791,28.608 2.748,29.69 1.699,30.739 -9.119,41.557 -18.842,48.231 -26.19,52.284 l 5.118,-24.84 C -15.739,21.652 -10.238,14.97 -4.691,7.293 -3.004,4.962 -1.447,2.524 0,0"
             style="fill:#389f4d;fill-opacity:1;fill-rule:nonzero;stroke:none"
             id="path6218" />
        </g>
        <g
           id="g6220"
           transform="translate(325.3198,405.6304)">
          <path
             d="m 0,0 c 0,0 -6.13,34.734 -57.72,72.022 -47.503,34.334 -137.292,18.587 -176.812,-12.108 -5.507,-4.277 -5.529,-12.587 -0.102,-16.964 11.643,-9.393 35.088,-22.652 72.712,-19.964 57.209,4.086 67.425,-49.037 67.425,-49.037 z"
             style="fill:#85d249;fill-opacity:1;fill-rule:nonzero;stroke:none"
             id="path6222" />
        </g>
        <g
           id="g6224"
           transform="translate(292.7271,448.3177)">
          <path
             d="m 0,0 c -24.262,-0.448 -56.689,-6.272 -93.614,-26.173 26.106,-13.467 31.71,-42.565 31.71,-42.565 l 94.497,26.051 c 0,0 -3.253,18.33 -24.792,42.649 C 5.207,0.033 2.606,0.048 0,0"
             style="fill:#60b550;fill-opacity:1;fill-rule:nonzero;stroke:none"
             id="path6226" />
        </g>
        <g
           id="g6228"
           transform="translate(196.7929,475.7148)">
          <path
             d="m 0,0 -2.257,-11.395 c -0.723,-3.652 1.902,-7.135 5.615,-7.405 8.135,-0.592 16.095,-1.782 23.697,-3.634 3.42,-0.832 6.834,1.393 7.518,4.846 l 2.355,11.896 C 37.576,-2.415 35.521,0.782 32.275,1.573 24.034,3.579 15.278,4.685 6.315,5.016 3.268,5.129 0.592,2.991 0,0"
             style="fill:#60b550;fill-opacity:1;fill-rule:nonzero;stroke:none"
             id="path6230" />
        </g>
        <g
           id="g6232"
           transform="translate(248.442,460.6745)">
          <path
             d="m 0,0 -2.06,-10.416 c -0.532,-2.687 0.772,-5.379 3.177,-6.69 3.109,-1.695 6.087,-3.561 8.916,-5.607 7.677,-5.548 14.358,-11.049 20.15,-16.381 l 24.84,-5.119 C 50.97,-36.865 44.297,-27.142 33.478,-16.323 26.544,-9.389 18.522,-2.624 9.642,3.805 9.617,3.823 9.592,3.841 9.567,3.859 5.964,6.462 0.863,4.361 0,0"
             style="fill:#60b550;fill-opacity:1;fill-rule:nonzero;stroke:none"
             id="path6234" />
        </g>
        <g
           id="g6236"
           transform="translate(278.6255,421.5799)">
          <path
             d="M 0,0 24.84,-5.118 C 20.787,2.23 14.113,11.953 3.295,22.771 2.246,23.82 1.164,24.863 0.066,25.904 c -8.475,-0.842 -17.682,-2.364 -27.51,-4.832 2.524,-1.447 4.962,-3.004 7.293,-4.691 C -12.474,10.834 -5.792,5.333 0,0"
             style="fill:#389f4d;fill-opacity:1;fill-rule:nonzero;stroke:none"
             id="path6238" />
        </g>
        <g
           id="g6240"
           transform="translate(1.5335,227.9724)">
          <path
             d="m 0,0 c 1.5,-13.776 4.093,-27.222 7.69,-40.252 23.372,5.542 52.878,4.829 79.27,-18.916 L 99.512,33.649 C 99.512,33.649 44.623,47.232 0,0"
             style="fill:#85d249;fill-opacity:1;fill-rule:nonzero;stroke:none"
             id="path6242" />
        </g>
        <g
           id="g6244"
           transform="translate(261.6218,101.0453)">
          <path
             d="m 0,0 -92.817,-12.551 c 23.745,-26.393 24.458,-55.899 18.915,-79.271 13.031,-3.597 26.477,-6.19 40.253,-7.69 C 13.582,-54.889 0,0 0,0"
             style="fill:#85d249;fill-opacity:1;fill-rule:nonzero;stroke:none"
             id="path6246" />
        </g>
        <g
           id="g6248"
           transform="translate(482.9418,483.9957)">
          <path
             d="m 0,0 c -10.908,10.908 -74.362,4.894 -99.391,-20.135 -25.029,-25.029 -34.899,-63.256 -34.899,-63.256 l 25.45,-25.449 25.449,-25.45 c 0,0 38.227,9.87 63.256,34.899 C 4.894,-74.362 10.908,-10.908 0,0"
             style="fill:#85d249;fill-opacity:1;fill-rule:nonzero;stroke:none"
             id="path6250" />
        </g>
        <g
           id="g6252"
           transform="translate(424.2353,358.8689)">
          <path
             d="M 0,0 C -49.316,83.614 58.706,125.127 58.706,125.127 47.798,136.035 -15.656,130.021 -40.685,104.992 -65.714,79.963 -75.583,41.736 -75.583,41.736 l 25.449,-25.449 25.45,-25.45 c 0,0 10.803,2.79 24.684,9.163"
             style="fill:#60b550;fill-opacity:1;fill-rule:nonzero;stroke:none"
             id="path6254" />
        </g>
        <g
           id="g6256"
           transform="translate(436.4387,404.5597)">
          <path
             d="m 0,0 4.813,17.962 c 0.501,1.869 -0.034,3.864 -1.402,5.233 L -9.738,36.344 c -1.369,1.368 -3.364,1.903 -5.233,1.402 l -17.962,-4.813 c -1.87,-0.501 -3.33,-1.961 -3.831,-3.831 L -42.386,8.119 -24.814,-9.453 -3.831,-3.831 C -1.961,-3.33 -0.501,-1.87 0,0"
             style="fill:#60b550;fill-opacity:1;fill-rule:nonzero;stroke:none"
             id="path6258" />
        </g>
        <g
           id="g6260"
           transform="translate(425.5544,441.7771)">
          <path
             d="m 0,0 c -1.223,0.698 -2.69,0.903 -4.087,0.528 l -17.962,-4.812 c -1.869,-0.501 -3.33,-1.962 -3.831,-3.831 l -5.622,-20.983 17.569,-17.569 C -15.631,-28.236 -9.399,-12.686 0,0"
             style="fill:#389f4d;fill-opacity:1;fill-rule:nonzero;stroke:none"
             id="path6262" />
        </g>
        <g
           id="g6264"
           transform="translate(405.1928,371.102)">
          <path
             d="M 0,0 6.432,24.004 -11.14,41.577 -35.145,35.145 -41.577,11.14 -24.004,-6.432 Z"
             style="fill:#389f4d;fill-opacity:1;fill-rule:nonzero;stroke:none"
             id="path6266" />
        </g>
        <g
           id="g6268"
           transform="translate(261.6217,101.0453)">
          <path
             d="m 0,0 -92.817,-12.551 c 10.714,-11.909 16.728,-24.452 19.606,-36.78 20.722,-0.885 45.781,0.943 72.902,9.037 C 4.266,-17.264 0,0 0,0"
             style="fill:#60b550;fill-opacity:1;fill-rule:nonzero;stroke:none"
             id="path6270" />
        </g>
        <g
           id="g6272"
           transform="translate(101.0453,261.6217)">
          <path
             d="m 0,0 c 0,0 -17.263,4.266 -40.294,-0.309 -8.094,-27.121 -9.922,-52.18 -9.036,-72.902 12.327,-2.878 24.87,-8.892 36.779,-19.606 z"
             style="fill:#60b550;fill-opacity:1;fill-rule:nonzero;stroke:none"
             id="path6274" />
        </g>
        <g
           id="g6276"
           transform="translate(390.504,390.504)">
          <path
             d="m 0,0 c -37.996,37.996 -138.228,71.825 -250.347,-40.295 -112.12,-112.119 -52.357,-238.286 -40.295,-250.347 12.061,-12.062 138.228,-71.825 250.347,40.295 C 71.825,-138.228 37.996,-37.996 0,0"
             style="fill:#a02810;fill-opacity:1;fill-rule:nonzero;stroke:none"
             id="path6278" />
        </g>
        <g
           id="g6280"
           transform="translate(207.9118,99.8617)">
          <path
             d="m 0,0 c -12.062,12.062 -71.825,138.228 40.295,250.347 35.157,35.158 69.145,55.96 100.412,66.788 C 91.147,336.337 14.931,333.034 -67.755,250.347 -179.875,138.228 -120.112,12.062 -108.05,0 -99.509,-8.541 -33.743,-40.987 43.731,-19.392 19.992,-12.929 3.931,-3.931 0,0"
             style="fill:#891806;fill-opacity:1;fill-rule:nonzero;stroke:none"
             id="path6282" />
        </g>
        <g
           id="g6284"
           transform="translate(155.4327,229.0517)">
          <path
             d="m 0,0 -35.886,35.886 c -9.733,-22.337 -14.371,-45.918 -13.832,-70.587 0.188,-8.589 1.007,-16.636 2.2,-24.036 l 34.238,9.174 z"
             style="fill:#a02810;fill-opacity:1;fill-rule:nonzero;stroke:none"
             id="path6286" />
        </g>
        <g
           id="g6288"
           transform="translate(385.8979,250.2998)">
          <path
             d="m 0,0 c 5.198,14.659 7.989,29.197 8.251,43.427 0.001,0.082 0.003,0.163 0.004,0.245 0.194,11.831 -8.139,22.065 -19.691,24.624 -3.415,0.757 -6.786,1.764 -10.087,3.012 L -32.044,32.044 Z"
             style="fill:#b2381b;fill-opacity:1;fill-rule:nonzero;stroke:none"
             id="path6290" />
        </g>
        <g
           id="g6292"
           transform="translate(227.9977,156.4867)">
          <path
             d="m 0,0 -49.563,-13.28 -9.401,-35.086 c 7.746,-1.308 16.233,-2.207 25.317,-2.406 24.669,-0.538 48.25,4.099 70.587,13.832 z"
             style="fill:#b2381b;fill-opacity:1;fill-rule:nonzero;stroke:none"
             id="path6294" />
        </g>
        <g
           id="g6296"
           transform="translate(194.3503,105.7149)">
          <path
             d="M 0,0 C 3.129,-0.068 6.239,-0.052 9.332,0.046 4.693,7.792 -1.639,21.76 -6.402,40.041 L -15.915,37.492 -25.317,2.406 C -17.57,1.098 -9.084,0.198 0,0"
             style="fill:#a02810;fill-opacity:1;fill-rule:nonzero;stroke:none"
             id="path6298" />
        </g>
        <g
           id="g6300"
           transform="translate(321.1649,365.593)">
          <path
             d="m 0,0 c -1.042,2.911 -1.905,5.872 -2.569,8.869 -2.559,11.552 -12.793,19.885 -24.624,19.691 -0.082,-10e-4 -0.164,-0.003 -0.246,-0.004 -14.229,-0.262 -28.767,-3.053 -43.426,-8.251 l 30.989,-30.99 z"
             style="fill:#b2381b;fill-opacity:1;fill-rule:nonzero;stroke:none"
             id="path6302" />
        </g>
        <g
           id="g6304"
           transform="translate(267.7683,368.4293)">
          <path
             d="m 0,0 c 11.166,9.646 22.179,17.882 32.99,24.866 -2.17,0.588 -4.445,0.896 -6.786,0.858 C 26.122,25.723 26.04,25.721 25.958,25.72 11.728,25.457 -2.809,22.667 -17.469,17.469 Z"
             style="fill:#a02810;fill-opacity:1;fill-rule:nonzero;stroke:none"
             id="path6306" />
        </g>
        <g
           id="g6308"
           transform="translate(204.9955,242.332)">
          <path
             d="m 0,0 -49.563,-13.28 -13.28,-49.563 36.282,-36.283 49.563,13.281 13.281,49.562 z"
             style="fill:#a02810;fill-opacity:1;fill-rule:nonzero;stroke:none"
             id="path6310" />
        </g>
        <g
           id="g6312"
           transform="translate(187.9482,145.7554)">
          <path
             d="M 0,0 C -6.33,24.295 -9.86,56.196 -2.919,91.227 L -32.515,83.296 -45.796,33.733 -9.513,-2.549 Z"
             style="fill:#891806;fill-opacity:1;fill-rule:nonzero;stroke:none"
             id="path6314" />
        </g>
        <g
           id="g6316"
           transform="translate(142.1524,179.4889)">
          <path
             d="m 0,0 -34.237,-9.174 c 3.874,-24.011 11.743,-41.132 15.206,-47.193 5.953,-3.402 22.57,-11.059 45.912,-15.001 l 9.402,35.085 z"
             style="fill:#d85e41;fill-opacity:1;fill-rule:nonzero;stroke:none"
             id="path6318" />
        </g>
        <g
           id="g6320"
           transform="translate(304.2916,269.063)">
          <path
             d="m 0,0 -13.451,-49.733 46.076,-46.076 c 23.393,25.401 39.89,51.41 48.981,77.046 L 49.563,13.28 Z"
             style="fill:#a02810;fill-opacity:1;fill-rule:nonzero;stroke:none"
             id="path6322" />
        </g>
        <g
           id="g6324"
           transform="translate(336.9169,173.2537)">
          <path
             d="m 0,0 -46.076,46.076 -49.563,-13.28 -13.28,-49.563 36.94,-36.94 c 22.022,9.597 42.836,24.146 62.285,43.596 C -6.336,-6.754 -3.114,-3.382 0,0"
             style="fill:#d85e41;fill-opacity:1;fill-rule:nonzero;stroke:none"
             id="path6326" />
        </g>
        <g
           id="g6328"
           transform="translate(218.2758,291.8948)">
          <path
             d="M 0,0 49.733,13.451 63.014,63.014 32.024,94.003 C 6.388,84.912 -19.621,68.415 -45.022,45.022 Z"
             style="fill:#a02810;fill-opacity:1;fill-rule:nonzero;stroke:none"
             id="path6330" />
        </g>
        <g
           id="g6332"
           transform="translate(248.2068,350.2092)">
          <path
             d="M 0,0 C 6.565,6.565 13.088,12.628 19.562,18.22 L 2.093,35.689 C -23.543,26.598 -49.552,10.101 -74.953,-13.292 l 36.227,-36.227 C -29.008,-32.979 -16.341,-16.341 0,0"
             style="fill:#891806;fill-opacity:1;fill-rule:nonzero;stroke:none"
             id="path6334" />
        </g>
        <g
           id="g6336"
           transform="translate(204.9955,242.332)">
          <path
             d="M 0,0 13.28,49.563 -31.742,94.585 C -35.123,91.471 -38.496,88.249 -41.853,84.891 -61.303,65.442 -75.852,44.628 -85.449,22.606 L -49.563,-13.28 Z"
             style="fill:#d85e41;fill-opacity:1;fill-rule:nonzero;stroke:none"
             id="path6338" />
        </g>
        <g
           id="g6340"
           transform="translate(185.0293,236.982)">
          <path
             d="M 0,0 C 4.056,20.47 11.698,42.002 24.451,63.708 L -11.776,99.935 C -15.157,96.821 -18.529,93.599 -21.887,90.241 -41.337,70.792 -55.886,49.978 -65.483,27.956 L -29.597,-7.93 Z"
             style="fill:#b2381b;fill-opacity:1;fill-rule:nonzero;stroke:none"
             id="path6342" />
        </g>
        <g
           id="g6344"
           transform="translate(422.2404,471.9034)">
          <path
             d="m 0,0 c -4.232,-4.232 -11.092,-4.232 -15.324,0 -4.231,4.232 -4.231,11.092 0,15.324 4.232,4.231 11.092,4.231 15.324,0 C 4.232,11.092 4.232,4.232 0,0"
             style="fill:#603f42;fill-opacity:1;fill-rule:nonzero;stroke:none"
             id="path6346" />
        </g>
        <g
           id="g6348"
           transform="translate(486.1732,407.9705)">
          <path
             d="m 0,0 c -4.232,-4.232 -11.092,-4.232 -15.324,0 -4.231,4.232 -4.231,11.092 0,15.324 4.232,4.231 11.092,4.231 15.324,0 C 4.232,11.092 4.232,4.232 0,0"
             style="fill:#603f42;fill-opacity:1;fill-rule:nonzero;stroke:none"
             id="path6350" />
        </g>
        <g
           id="g6352"
           transform="translate(290.8408,219.3298)">
          <path
             d="M 0,0 13.451,49.733 -22.832,86.016 -72.565,72.565 -85.845,23.002 -49.563,-13.28 Z"
             style="fill:#b2381b;fill-opacity:1;fill-rule:nonzero;stroke:none"
             id="path6354" />
        </g>
        <g
           id="g6356"
           transform="translate(268.009,305.3455)">
          <path
             d="m 0,0 36.283,-36.283 49.562,13.281 10.521,39.264 C 86.898,19.84 78.018,25.434 70.394,33.057 62.445,41.007 56.707,50.323 53.156,60.247 L 13.28,49.563 Z"
             style="fill:#d85e41;fill-opacity:1;fill-rule:nonzero;stroke:none"
             id="path6358" />
        </g>
      </g>
    </g>
    <g
       id="g6360">
      <g
         id="g6362"
         clip-path="url(#clipPath6366)">
        <g
           id="g6368"
           transform="translate(969.0193,606.9807)">
          <path
             d="m 0,0 c -99.974,-99.974 -262.064,-99.974 -362.039,0 -99.974,99.974 -99.974,262.064 0,362.039 99.975,99.974 262.065,99.974 362.039,0 C 99.974,262.064 99.974,99.974 0,0"
             style="fill:#603f42;fill-opacity:1;fill-rule:nonzero;stroke:none"
             id="path6370" />
        </g>
      </g>
    </g>
  </g>
</svg>
